<svg xmlns="http://www.w3.org/2000/svg" viewBox="0 0 900 1270" role="img" aria-labelledby="title desc">
  <title id="title">2026 FDA Certification of Registration</title>
  <desc id="desc">FDA Food Facility Registration certificate for BACH THAO DUOC FACTORY JOINT STOCK COMPANY, year 2026.</desc>
  <rect width="900" height="1270" fill="#fff"/>
  <rect x="28" y="28" width="844" height="1214" fill="none" stroke="#111" stroke-width="5"/>
  <g fill="none" stroke="#111" stroke-width="4" stroke-linecap="round">
    <path d="M78 70h165M657 70h165M310 55c45 40 95 40 140 0 45 40 95 40 140 0"/>
    <path d="M78 1200h165M657 1200h165M310 1218c45-40 95-40 140 0 45-40 95-40 140 0"/>
  </g>
  <g transform="translate(450 126)">
    <path d="M-42 12c-80-58-155-37-215-8 60 7 116 32 166 70" fill="#8a3d1f" stroke="#33160b" stroke-width="3"/>
    <path d="M42 12c80-58 155-37 215-8-60 7-116 32-166 70" fill="#8a3d1f" stroke="#33160b" stroke-width="3"/>
    <path d="M-24-28h76l-8 70H-40z" fill="#0b3d91" stroke="#111" stroke-width="3"/>
    <g fill="#fff">
      <circle cx="-8" cy="-10" r="4"/><circle cx="14" cy="-10" r="4"/><circle cx="36" cy="-10" r="4"/>
      <circle cx="2" cy="10" r="4"/><circle cx="24" cy="10" r="4"/><circle cx="42" cy="28" r="4"/>
    </g>
    <path d="M-40 43c43 14 92 12 132-6" fill="none" stroke="#b21b1b" stroke-width="14"/>
    <path d="M-36 58c42 12 83 9 120-5" fill="none" stroke="#fff" stroke-width="8"/>
    <path d="M-18 44c10-22 31-38 55-38 26 0 48 18 55 42-20 30-82 35-110-4z" fill="#6b3a1e" stroke="#111" stroke-width="3"/>
    <path d="M10 8c23-23 61-12 74 10-26-2-45 7-55 21" fill="#fff" stroke="#111" stroke-width="3"/>
    <path d="M75 19l27 10-28 10" fill="#e0a400" stroke="#111" stroke-width="2"/>
  </g>
  <text x="450" y="236" text-anchor="middle" font-family="Arial, Helvetica, sans-serif" font-size="42" fill="#111">2026</text>
  <text x="450" y="292" text-anchor="middle" font-family="Arial, Helvetica, sans-serif" font-size="39" font-weight="900" fill="#111">CERTIFICATION OF REGISTRATION</text>
  <g font-family="Arial, Helvetica, sans-serif" fill="#111">
    <text x="78" y="350" font-size="18">This certifies that:</text>
    <text x="78" y="400" font-size="21" font-weight="800">BACH THAO DUOC FACTORY JOINT STOCK COMPANY</text>
    <text x="78" y="426" font-size="19" font-weight="700">Lot Q-6, Trang Due Industrial Park, Dinh Vu-Cat Hai Economic Zone, An Hoa Commune,</text>
    <text x="78" y="451" font-size="19" font-weight="700">An Duong District, Hai Phong City, Vietnam</text>
    <text x="78" y="507" font-size="20">has completed the FDA Food Facility Registration with the US Food &amp; Drug Administration for</text>
    <text x="78" y="533" font-size="20" font-weight="800">the Year 2026, through RISHIMA LLC.</text>
    <text x="78" y="582" font-size="19">The registration information as below:</text>
  </g>
  <g stroke="#111" stroke-width="2" fill="none">
    <rect x="72" y="604" width="756" height="126"/>
    <path d="M72 646h756M72 688h756M552 604v126"/>
  </g>
  <g font-family="Georgia, serif" fill="#111" font-size="18">
    <text x="92" y="632">Registration Number:</text><text x="572" y="632">12021869326</text>
    <text x="92" y="674">PIN:</text><text x="572" y="674">e84c3bc2</text>
    <text x="92" y="716">D-U-N-S Number:</text><text x="572" y="716">55-729-0357</text>
  </g>
  <g stroke="#111" stroke-width="2" fill="none">
    <rect x="72" y="750" width="756" height="295"/>
    <path d="M72 790h756M552 750v295M72 944h756"/>
  </g>
  <g font-family="Georgia, serif" fill="#111">
    <text x="92" y="777" font-size="19" font-weight="700">Selected Product Name:</text>
    <text x="572" y="777" font-size="19" font-weight="700">Selected Activity Types:</text>
    <text x="92" y="823" font-size="19" font-weight="700">12. DIETARY SUPPLEMENT CATEGORIES</text>
    <text x="112" y="850" font-size="17">a. Herbals and Botanicals:</text>
    <text x="142" y="875" font-size="17">• Ago Mom</text>
    <text x="142" y="900" font-size="17">• Mau Nguyet Da</text>
    <text x="142" y="925" font-size="17">• Mau Nguyet Da Plus</text>
    <text x="142" y="950" font-size="17">• Ovagen</text>
    <text x="142" y="975" font-size="17">• VSHM Tue Tinh</text>
    <text x="142" y="1000" font-size="17">• Ago Dad</text>
    <text x="142" y="1025" font-size="17">• Ago Men</text>
    <text x="142" y="1050" font-size="17">• Ago Eva</text>
    <text x="142" y="1075" font-size="17">• Ago Tumor</text>
    <text x="572" y="925" font-size="18">Manufacturer / Processor;</text>
    <text x="92" y="1115" font-size="19" font-weight="700">14. FISHERY / SEAFOOD PRODUCT CATEGORIES</text>
    <text x="112" y="1142" font-size="17">b. Molluscan Shellfish: Ago Hau Bien</text>
    <text x="572" y="1128" font-size="18">Manufacturer / Processor;</text>
  </g>
  <g font-family="Arial, Helvetica, sans-serif" font-size="15" font-style="italic" fill="#111">
    <text x="78" y="1135">We will confirm that such registration remains effective upon request and presentation of this certificate until the</text>
    <text x="78" y="1155">end of the calendar year stated above, unless said registration is terminated after issuance of this certificate.</text>
    <text x="78" y="1175">This certificate does not denote endorsement or approval of the certificate-holder’s device or establishment by</text>
    <text x="78" y="1195">the U.S. Food and Drug Administration. We assume no liability in connection with the foregoing.</text>
  </g>
  <g transform="translate(88 1160)">
    <text x="0" y="70" font-family="Arial Black, Arial, sans-serif" font-size="76" fill="#1637c8">FDA</text>
  </g>
  <g transform="translate(425 1198)">
    <circle cx="0" cy="0" r="48" fill="none" stroke="#c51622" stroke-width="5"/>
    <circle cx="0" cy="0" r="33" fill="none" stroke="#c51622" stroke-width="2"/>
    <text x="0" y="-5" text-anchor="middle" font-family="Georgia, serif" font-size="12" fill="#c51622" font-weight="700">RISHIMA LLC</text>
    <text x="0" y="15" text-anchor="middle" font-family="Georgia, serif" font-size="11" fill="#c51622">FDA REGISTRATION AGENT</text>
  </g>
  <g font-family="Georgia, serif" fill="#111">
    <path d="M610 1185c34-28 70 20 108-6 18-12 37-11 51 0" fill="none" stroke="#7464c8" stroke-width="3"/>
    <text x="628" y="1217" font-size="20" text-anchor="middle">Chief Engineer</text>
    <text x="628" y="1240" font-size="18" text-anchor="middle">Issued: 12/20/2025</text>
    <text x="628" y="1262" font-size="18" text-anchor="middle">Expiration Date: 12/31/2026</text>
  </g>
</svg>
