<svg xmlns="http://www.w3.org/2000/svg" viewBox="0 0 904 1280" width="904" height="1280">
  <rect width="904" height="1280" fill="#fff"/>
  <path d="M28 28h245M631 28h245M28 28v1224M876 28v1224M28 1252h245M631 1252h245" fill="none" stroke="#111" stroke-width="5"/>
  <g fill="#111" font-family="Arial, Helvetica, sans-serif">
    <text x="452" y="98" text-anchor="middle" font-size="34" font-weight="700">UNITED STATES</text>
    <text x="452" y="138" text-anchor="middle" font-size="26">FOOD FACILITY REGISTRATION</text>
  </g>
  <g transform="translate(452 203)">
    <path d="M-135 12c44-58 92-70 145-22 45-42 98-32 135 22-52-22-94-10-128 28-40-40-82-51-152-28z" fill="#8b3d18" stroke="#111" stroke-width="3"/>
    <path d="M-128 46c85 16 167 16 256 0" fill="none" stroke="#c21d20" stroke-width="18"/>
    <path d="M-128 46c85 16 167 16 256 0" fill="none" stroke="#fff" stroke-width="7"/>
    <path d="M-62 -18h125v47H-62z" fill="#123a9f"/>
    <g fill="#fff" font-size="13" font-family="Arial"><text x="-48" y="0">★ ★ ★ ★ ★</text><text x="-48" y="19">★ ★ ★ ★ ★</text></g>
  </g>
  <text x="452" y="285" text-anchor="middle" font-family="Arial, Helvetica, sans-serif" font-size="42" fill="#111">2026</text>
  <text x="452" y="333" text-anchor="middle" font-family="Arial, Helvetica, sans-serif" font-size="43" font-weight="900" fill="#111">CERTIFICATION OF REGISTRATION</text>
  <g font-family="Arial, Helvetica, sans-serif" fill="#111">
    <text x="60" y="378" font-size="18">This certifies that:</text>
    <text x="60" y="427" font-size="21" font-weight="700">BACH THAO DUOC FACTORY JOINT STOCK COMPANY</text>
    <text x="60" y="454" font-size="18" font-weight="700">Lot Q-6, Trang Due Industrial Park, Dinh Vu-Cat Hai Economic Zone, An Hoa Commune,</text>
    <text x="60" y="480" font-size="18" font-weight="700">An Duong District, Hai Phong City, Vietnam</text>
    <text x="60" y="535" font-size="19">has completed the <tspan font-weight="700">FDA Food Facility Registration with the US Food &amp; Drug Administration</tspan> for</text>
    <text x="60" y="562" font-size="19"><tspan font-weight="700">the Year 2026</tspan>, through <tspan font-weight="700">RISHIMA LLC.</tspan></text>
    <text x="72" y="610" font-size="20">The registration information as below:</text>
  </g>
  <g stroke="#111" stroke-width="2" fill="none">
    <rect x="60" y="630" width="784" height="122"/>
    <line x1="60" y1="671" x2="844" y2="671"/><line x1="60" y1="711" x2="844" y2="711"/><line x1="560" y1="630" x2="560" y2="752"/>
  </g>
  <g font-family="Times New Roman, serif" fill="#111" font-size="19">
    <text x="78" y="657">Registration Number:</text><text x="578" y="657">12021869326</text>
    <text x="78" y="698">PIN:</text><text x="578" y="698">e84c3bc2</text>
    <text x="78" y="738">D-U-N-S Number:</text><text x="578" y="738">55-729-0357</text>
  </g>
  <g stroke="#111" stroke-width="2" fill="none">
    <rect x="60" y="770" width="784" height="338"/>
    <line x1="60" y1="812" x2="844" y2="812"/><line x1="560" y1="770" x2="560" y2="1108"/><line x1="60" y1="1048" x2="844" y2="1048"/>
  </g>
  <g font-family="Times New Roman, serif" fill="#111">
    <text x="78" y="798" font-size="21" font-weight="700">Selected Product Name:</text>
    <text x="578" y="798" font-size="21" font-weight="700">Selected Activity Types:</text>
    <text x="78" y="842" font-size="19">12. DIETARY SUPPLEMENT CATEGORIES</text>
    <text x="98" y="866" font-size="18">a. Herbals and Botanicals:</text>
    <text x="118" y="891" font-size="18">• Ago Mom</text>
    <text x="118" y="916" font-size="18">• Mau Nguyet Da</text>
    <text x="118" y="941" font-size="18">• Mau Nguyet Da Plus</text>
    <text x="118" y="966" font-size="18">• Ovagen</text>
    <text x="118" y="991" font-size="18">• VSHM Tue Tinh</text>
    <text x="118" y="1016" font-size="18">• Ago Dad</text>
    <text x="118" y="1041" font-size="18">• Ago Men</text>
    <text x="118" y="1066" font-size="18">• Ago Eva</text>
    <text x="118" y="1091" font-size="18">• Ago Tumor</text>
    <text x="578" y="928" font-size="18">Manufacturer / Processor;</text>
    <text x="78" y="1075" font-size="19">14. FISHERY / SEAFOOD PRODUCT CATEGORIES</text>
    <text x="98" y="1100" font-size="18">b. Molluscan Shellfish: Ago Hau Bien</text>
    <text x="578" y="1078" font-size="18">Manufacturer / Processor;</text>
  </g>
  <text x="68" y="1146" font-family="Arial, Helvetica, sans-serif" font-size="14" font-style="italic" fill="#111">We will confirm that such registration remains effective upon request and presentation of this certificate until the end of the calendar year stated above, unless said registration is terminated after issuance of this certificate.</text>
  <text x="68" y="1165" font-family="Arial, Helvetica, sans-serif" font-size="14" font-style="italic" fill="#111">We make no other representations or warranties, nor does this certificate make any representations or warranties to any person or entity other than the named certificate holder.</text>
  <g font-family="Arial, Helvetica, sans-serif">
    <text x="65" y="1232" font-size="96" font-weight="900" fill="#1436c7">FDA</text>
    <circle cx="438" cy="1210" r="56" fill="none" stroke="#c91414" stroke-width="5"/>
    <circle cx="438" cy="1210" r="43" fill="none" stroke="#c91414" stroke-width="2"/>
    <text x="438" y="1192" text-anchor="middle" font-size="14" font-weight="700" fill="#c91414">RISHIMA LLC</text>
    <text x="438" y="1223" text-anchor="middle" font-size="12" font-weight="700" fill="#c91414">FDA REGISTRATION</text>
    <text x="438" y="1240" text-anchor="middle" font-size="12" font-weight="700" fill="#c91414">AGENT</text>
    <path d="M621 1195c36-44 45 22 84-10 10-8 12-2 18 2 14 9 38 0 76-7" fill="none" stroke="#153ee6" stroke-width="3"/>
    <text x="702" y="1224" text-anchor="middle" font-size="17" fill="#111">Chief Engineer</text>
    <text x="702" y="1245" text-anchor="middle" font-size="16" fill="#111">Issued: 12/20/2025</text>
    <text x="702" y="1265" text-anchor="middle" font-size="16" fill="#111">Expiration Date: 12/31/2026</text>
  </g>
</svg>
